<svg xmlns="http://www.w3.org/2000/svg" viewBox="0 0 1400 700" fill="none"> <defs> <linearGradient id="cb" x1="0" y1="0" x2="1400" y2="700" gradientUnits="userSpaceOnUse"> <stop stop-color="#070a0f"/><stop offset=".5" stop-color="#0d1420"/><stop offset="1" stop-color="#080b11"/> </linearGradient> <linearGradient id="cs" x1="0" y1="0" x2="1400" y2="700" gradientUnits="userSpaceOnUse"> <stop stop-color="#22d3ee"/><stop offset=".5" stop-color="#3b82f6"/><stop offset="1" stop-color="#a855f7"/> </linearGradient> <filter id="cf" x="-20%" y="-20%" width="140%" height="140%"><feGaussianBlur stdDeviation="120"/></filter> </defs> <rect width="1400" height="700" fill="url(#cb)"/> <g filter="url(#cf)" opacity=".5"> <circle cx="320" cy="200" r="240" fill="#3b82f6"/> <circle cx="1080" cy="480" r="260" fill="#a855f7"/> <circle cx="700" cy="620" r="200" fill="#22d3ee"/> </g> <g stroke="url(#cs)" stroke-opacity=".28" stroke-width="1.5" fill="none"> <path d="M180 520l180-140 200 90 190-170 210 120 200-90"/> <path d="M180 380l180 120 200-70 190 130 210-150 200 70"/> </g> <g fill="url(#cs)" fill-opacity=".85"> <circle cx="360" cy="380" r="7"/><circle cx="560" cy="470" r="7"/><circle cx="750" cy="300" r="7"/> <circle cx="960" cy="420" r="7"/><circle cx="1160" cy="330" r="7"/><circle cx="180" cy="450" r="7"/> </g> </svg>
