<svg xmlns="http://www.w3.org/2000/svg" viewBox="0 0 660 440" fill="none"> <defs> <linearGradient id="gg0" x1="0" y1="0" x2="660" y2="440" gradientUnits="userSpaceOnUse"> <stop stop-color="#22d3ee"/><stop offset="1" stop-color="#3b82f6"/> </linearGradient> <filter id="gf0" x="-25%" y="-25%" width="150%" height="150%"><feGaussianBlur stdDeviation="52"/></filter> </defs> <rect width="660" height="440" fill="#0b0d11"/> <g filter="url(#gf0)" opacity=".5"> <circle cx="140" cy="150" r="140" fill="#22d3ee"/> <circle cx="470" cy="320" r="150" fill="#3b82f6"/> </g> <rect x="58" y="340" width="34" height="40" rx="8" fill="url(#gg0)" fill-opacity="0.25"/><rect x="120" y="287" width="34" height="93" rx="8" fill="url(#gg0)" fill-opacity="0.43"/><rect x="182" y="234" width="34" height="146" rx="8" fill="url(#gg0)" fill-opacity="0.61"/><rect x="244" y="181" width="34" height="199" rx="8" fill="url(#gg0)" fill-opacity="0.79"/><rect x="306" y="318" width="34" height="62" rx="8" fill="url(#gg0)" fill-opacity="0.25"/><rect x="368" y="265" width="34" height="115" rx="8" fill="url(#gg0)" fill-opacity="0.43"/><rect x="430" y="212" width="34" height="168" rx="8" fill="url(#gg0)" fill-opacity="0.61"/><rect x="492" y="159" width="34" height="221" rx="8" fill="url(#gg0)" fill-opacity="0.79"/><rect x="554" y="296" width="34" height="84" rx="8" fill="url(#gg0)" fill-opacity="0.25"/> <rect x="58" y="378" width="530" height="3" rx="1.5" fill="url(#gg0)" fill-opacity=".7"/> <g stroke="url(#gg0)" stroke-opacity=".3" stroke-width="2" fill="none"> <circle cx="576" cy="94" r="34"/><path d="M552 94h48M576 70v48"/> </g>
</svg>
