<svg xmlns="http://www.w3.org/2000/svg" viewBox="0 0 640 440" fill="none" preserveAspectRatio="xMidYMid slice"> <defs> <linearGradient id="tubg" x1="0" y1="0" x2="640" y2="440" gradientUnits="userSpaceOnUse"> <stop stop-color="#050a12"/><stop offset=".45" stop-color="#0a1626"/><stop offset="1" stop-color="#06101c"/> </linearGradient> <linearGradient id="tus" x1="0" y1="0" x2="640" y2="440" gradientUnits="userSpaceOnUse"> <stop stop-color="#38bdf8"/><stop offset="1" stop-color="#6366f1"/> </linearGradient> <radialGradient id="tuv" cx="50%" cy="46%" r="72%"> <stop stop-color="#000" stop-opacity="0"/><stop offset="1" stop-color="#000" stop-opacity=".55"/> </radialGradient> <filter id="tuf" x="-25%" y="-25%" width="150%" height="150%"><feGaussianBlur stdDeviation="58"/></filter> <pattern id="tup" width="32" height="32" patternUnits="userSpaceOnUse"> <path d="M32 0H0v32" stroke="#38bdf8" stroke-opacity=".16" stroke-width="1" fill="none"/> </pattern> <pattern id="tud" width="16" height="16" patternUnits="userSpaceOnUse"> <circle cx="2" cy="2" r="1" fill="#6366f1" fill-opacity=".28"/> </pattern> </defs> <rect width="640" height="440" fill="url(#tubg)"/> <g filter="url(#tuf)" opacity=".85"> <circle cx="150" cy="120" r="170" fill="#38bdf8"/> <circle cx="500" cy="330" r="185" fill="#6366f1"/> <circle cx="330" cy="220" r="120" fill="#38bdf8" fill-opacity=".7"/> </g> <rect width="640" height="440" fill="url(#tup)"/> <rect width="640" height="440" fill="url(#tud)"/> <g opacity=".9"><g stroke="url(#tus)" stroke-width="3.5" fill="none" stroke-linecap="round"> <path d="M90 350h120l60-90h100l60 120h120"/> <path d="M150 350V250h70v100"/><path d="M330 260V150h90v110"/><path d="M470 380V270h80v110"/> </g> <g fill="url(#tus)"><circle cx="270" cy="260" r="9"/><circle cx="370" cy="260" r="9"/><circle cx="430" cy="380" r="9"/></g> <g stroke="url(#tus)" stroke-width="2" stroke-opacity=".5" fill="none"> <circle cx="270" cy="260" r="26"/><circle cx="430" cy="380" r="26"/> </g> <g stroke="#e8f6ff" stroke-opacity=".7" stroke-width="2.5" fill="none" stroke-linecap="round"> <path d="M96 128h44M96 148h64M96 168h30"/> <rect x="480" y="90" width="76" height="52" rx="10"/><path d="M480 108h76M498 126h28"/> </g></g> <rect width="640" height="440" fill="url(#tuv)"/> <g stroke="#38bdf8" stroke-opacity=".3" stroke-width="1" fill="none"> <path d="M0 110h640M0 330h640M170 0v440M470 0v440"/> </g>
</svg>
